HIERARCHY
ROOT hip
{
  OFFSET 0 0 0
  CHANNELS 6 Xposition Yposition Zposition Zrotation Yrotation Xrotation
  JOINT abdomen
  {
    OFFSET 0 20.6881 -0.73152
    CHANNELS 3 Zrotation Xrotation Yrotation
    JOINT chest
    {
      OFFSET 0 11.7043 -0.48768
      CHANNELS 3 Zrotation Xrotation Yrotation
      JOINT neck
      {
        OFFSET 0 22.1894 -2.19456
        CHANNELS 3 Zrotation Xrotation Yrotation
        JOINT head
        {
          OFFSET -0.24384 7.07133 1.2192
          CHANNELS 3 Zrotation Xrotation Yrotation
          JOINT leftEye
          {
            OFFSET 4.14528 8.04674 8.04672
            CHANNELS 3 Zrotation Xrotation Yrotation
            End Site
            {
              OFFSET 1 0 0
            }
          }
          JOINT rightEye
          {
            OFFSET -3.6576 8.04674 8.04672
            CHANNELS 3 Zrotation Xrotation Yrotation
            End Site
            {
              OFFSET 1 0 0
            }
          }
        }
      }
      JOINT rCollar
      {
        OFFSET -2.68224 19.2634 -4.8768
        CHANNELS 3 Zrotation Xrotation Yrotation
        JOINT rShldr
        {
          OFFSET -8.77824 -1.95073 1.46304
          CHANNELS 3 Zrotation Xrotation Yrotation
          JOINT rForeArm
          {
            OFFSET -28.1742 -1.7115 0.48768
            CHANNELS 3 Zrotation Xrotation Yrotation
            JOINT rHand
            {
              OFFSET -22.5879 0.773209 7.07136
              CHANNELS 3 Zrotation Xrotation Yrotation
              JOINT rThumb1
              {
                OFFSET -1.2192 -0.487915 3.41376
                CHANNELS 3 Zrotation Xrotation Yrotation
                JOINT rThumb2
                {
                  OFFSET -3.37035 -0.52449 3.41376
                  CHANNELS 3 Zrotation Xrotation Yrotation
                  End Site
                  {
                    OFFSET -1.78271 -1.18214 1.43049
                  }
                }
              }
              JOINT rIndex1
              {
                OFFSET -7.75947 0.938293 5.60832
                CHANNELS 3 Zrotation Xrotation Yrotation
                JOINT rIndex2
                {
                  OFFSET -2.54057 -0.884171 1.56538
                  CHANNELS 3 Zrotation Xrotation Yrotation
                  End Site
                  {
                    OFFSET -1.62519 -0.234802 1.16502
                  }
                }
              }
              JOINT rMid1
              {
                OFFSET -8.24714 1.18213 3.41376
                CHANNELS 3 Zrotation Xrotation Yrotation
                JOINT rMid2
                {
                  OFFSET -3.10165 -0.590103 1.0647
                  CHANNELS 3 Zrotation Xrotation Yrotation
                  End Site
                  {
                    OFFSET -2.48547 -0.328903 0.83742
                  }
                }
              }
              JOINT rRing1
              {
                OFFSET -8.82822 0.546677 1.51678
                CHANNELS 3 Zrotation Xrotation Yrotation
                JOINT rRing2
                {
                  OFFSET -2.60934 -0.819778 -0.0198488
                  CHANNELS 3 Zrotation Xrotation Yrotation
                  End Site
                  {
                    OFFSET -2.33842 -0.294052 0.168128
                  }
                }
              }
              JOINT rPinky1
              {
                OFFSET -8.27202 -0.0477905 -0.4584
                CHANNELS 3 Zrotation Xrotation Yrotation
                JOINT rPinky2
                {
                  OFFSET -1.82734 -0.647385 -0.700984
                  CHANNELS 3 Zrotation Xrotation Yrotation
                  End Site
                  {
                    OFFSET -1.69225 -0.51767 -0.607171
                  }
                }
              }
            }
          }
        }
      }
      JOINT lCollar
      {
        OFFSET 2.68224 19.2634 -4.8768
        CHANNELS 3 Zrotation Xrotation Yrotation
        JOINT lShldr
        {
          OFFSET 8.77824 -1.95073 1.46304
          CHANNELS 3 Zrotation Xrotation Yrotation
          JOINT lForeArm
          {
            OFFSET 28.1742 -1.7115 0.48768
            CHANNELS 3 Zrotation Xrotation Yrotation
            JOINT lHand
            {
              OFFSET 22.5879 0.773209 7.07136
              CHANNELS 3 Zrotation Xrotation Yrotation
              JOINT lThumb1
              {
                OFFSET 1.2192 -0.487915 3.41376
                CHANNELS 3 Zrotation Xrotation Yrotation
                JOINT lThumb2
                {
                  OFFSET 3.37035 -0.52449 3.41376
                  CHANNELS 3 Zrotation Xrotation Yrotation
                  End Site
                  {
                    OFFSET 1.78271 -1.18214 1.43049
                  }
                }
              }
              JOINT lIndex1
              {
                OFFSET 7.75947 0.938293 5.60832
                CHANNELS 3 Zrotation Xrotation Yrotation
                JOINT lIndex2
                {
                  OFFSET 2.54057 -0.884171 1.56538
                  CHANNELS 3 Zrotation Xrotation Yrotation
                  End Site
                  {
                    OFFSET 1.62519 -0.234802 1.16502
                  }
                }
              }
              JOINT lMid1
              {
                OFFSET 8.24714 1.18213 3.41376
                CHANNELS 3 Zrotation Xrotation Yrotation
                JOINT lMid2
                {
                  OFFSET 3.10165 -0.590103 1.0647
                  CHANNELS 3 Zrotation Xrotation Yrotation
                  End Site
                  {
                    OFFSET 2.48547 -0.328903 0.83742
                  }
                }
              }
              JOINT lRing1
              {
                OFFSET 8.82822 0.546677 1.51678
                CHANNELS 3 Zrotation Xrotation Yrotation
                JOINT lRing2
                {
                  OFFSET 2.60934 -0.819778 -0.0198488
                  CHANNELS 3 Zrotation Xrotation Yrotation
                  End Site
                  {
                    OFFSET 2.33842 -0.294052 0.168128
                  }
                }
              }
              JOINT lPinky1
              {
                OFFSET 8.27202 -0.0477905 -0.4584
                CHANNELS 3 Zrotation Xrotation Yrotation
                JOINT lPinky2
                {
                  OFFSET 1.82734 -0.647385 -0.700984
                  CHANNELS 3 Zrotation Xrotation Yrotation
                  End Site
                  {
                    OFFSET 1.69225 -0.51767 -0.607171
                  }
                }
              }
            }
          }
        }
      }
    }
  }
  JOINT rButtock
  {
    OFFSET -8.77824 4.35084 1.2192
    CHANNELS 3 Zrotation Xrotation Yrotation
    JOINT rThigh
    {
      OFFSET 0 -1.70687 -2.19456
      CHANNELS 3 Zrotation Xrotation Yrotation
      JOINT rShin
      {
        OFFSET 0 -36.8199 0.73152
        CHANNELS 3 Zrotation Xrotation Yrotation
        JOINT rFoot
        {
          OFFSET 0.73152 -45.1104 -5.12064
          CHANNELS 3 Zrotation Xrotation Yrotation
          End Site
          {
            OFFSET -1.1221 -3.69964 12.103
          }
        }
      }
    }
  }
  JOINT lButtock
  {
    OFFSET 8.77824 4.35084 1.2192
    CHANNELS 3 Zrotation Xrotation Yrotation
    JOINT lThigh
    {
      OFFSET 0 -1.70687 -2.19456
      CHANNELS 3 Zrotation Xrotation Yrotation
      JOINT lShin
      {
        OFFSET 0 -36.8199 0.73152
        CHANNELS 3 Zrotation Xrotation Yrotation
        JOINT lFoot
        {
          OFFSET -0.73152 -45.1104 -5.12064
          CHANNELS 3 Zrotation Xrotation Yrotation
          End Site
          {
            OFFSET 1.1221 -3.69964 12.103
          }
        }
      }
    }
  }
}
MOTION
Frames:	7
Frame Time:	0.00833333
-64.6145 85.1887 2.6647 0.0 0.0 0.0 0.55935 -0.00286671 0.0159888 0.154366 -0.00442833 0.026746 9.89381e-15 -7.95139e-16 -2.36057e-16 2.98177e-14 3.18055e-15 -7.14382e-16 -0.0 0.0 0.0 -0.0 0.0 0.0 4.96848e-15 4.65902e-18 9.93923e-17 1.05752e-13 2.48481e-16 -1.19271e-15 1.79095e-12 -5.29562e-13 -5.08889e-14 2.04936e-11 5.54187e-13 -4.77083e-13 4.83449e-11 5.03626e-14 -1.1291e-12 8.34868e-11 8.90555e-14 -1.95207e-12 4.8352e-11 5.00937e-14 -1.13546e-12 7.73091 5.47488 0.417314 4.83452e-11 5.00937e-14 -1.12592e-12 2.90554 0.965183 0.102902 4.83499e-11 5.00937e-14 -1.12989e-12 10.2786 0.731801 0.0259123 4.83424e-11 5.08889e-14 -1.12592e-12 2.22167 -0.733487 -0.20892 4.87168e-15 4.85314e-18 -2.98177e-16 1.01443e-13 2.54693e-16 -2.98177e-15 1.78896e-12 5.41092e-13 -7.95139e-14 2.04917e-11 -5.05932e-13 -4.32555e-13 4.83401e-11 7.20899e-14 -1.13546e-12 8.34896e-11 1.20861e-13 -1.96002e-12 4.83349e-11 7.39479e-14 -1.1291e-12 -7.73091 5.47488 -0.417314 4.83406e-11 7.196e-14 -1.13228e-12 -2.90554 0.965183 -0.102902 4.83308e-11 7.23576e-14 -1.13307e-12 -10.2786 0.731801 -0.0259123 4.83454e-11 7.4743e-14 -1.13864e-12 -2.22167 -0.733487 0.20892 -2.03217e-16 0.0 -3.88251e-19 0.923011 -4.50512 -0.0770323 -0.00206842 2.60853 -0.00963079 -0.502479 1.89677 0.0959443 2.03217e-16 0.0 3.88251e-19 -0.071229 -2.35216 0.0224554 0.00807183 -1.29119 0.0691975 0.494599 3.64342 -0.130515
-62.8011 84.1629 -0.239255 -48.4969 84.6373 -36.6739 2.35296 -3.98558 0.394878 -0.556343 1.56221 0.109591 -1.65791 -0.51523 -1.90179 -48.9498 8.17362 3.48214 -0.0 0.0 0.0 -0.0 0.0 0.0 -2.92935e-15 5.88086e-14 9.65115e-15 22.9751 19.4917 -1.0201 -26.9834 -24.5677 13.7394 0.030164 -3.85458 -0.537308 3.80564e-10 -1.25842e-09 -1.78005e-09 6.77064e-10 -2.17871e-09 -3.07501e-09 3.8057e-10 -1.25842e-09 -1.78006e-09 7.73091 5.47488 0.417314 3.80564e-10 -1.25842e-09 -1.78005e-09 2.90554 0.965183 0.102902 3.80569e-10 -1.25842e-09 -1.78005e-09 10.2786 0.731801 0.0259123 3.8056e-10 -1.25842e-09 -1.78004e-09 2.22167 -0.733487 -0.20892 -3.00644e-15 5.88086e-14 9.27726e-15 -22.5446 19.3428 -1.14352 26.5729 -24.2166 -13.8994 -0.136613 -8.22641 1.1138 6.47196e-10 -2.37641e-09 1.71128e-09 1.07657e-09 -4.10913e-09 2.97056e-09 6.47192e-10 -2.3764e-09 1.71128e-09 -7.73091 5.47488 -0.417314 6.47197e-10 -2.37641e-09 1.71128e-09 -2.90554 0.965183 -0.102902 6.47189e-10 -2.37641e-09 1.71128e-09 -10.2786 0.731801 -0.0259123 6.47201e-10 -2.3764e-09 1.71128e-09 -2.22167 -0.733487 0.20892 -2.03217e-16 0.0 -3.88251e-19 1.5566 -8.71866 1.06142 0.00114287 5.79484 0.0534169 -0.722641 -1.21089 -2.92879 2.03217e-16 0.0 3.88251e-19 1.27997 -5.56525 0.796043 -0.00325517 1.85564 -0.0161953 0.714907 -1.93582 2.42233
-62.7023 84.1679 -0.0747147 -48.2831 84.4828 -36.4214 4.29974 -8.20149 0.779716 -1.30761 3.21684 0.190987 -3.48266 -1.05733 -3.90338 -101.813 16.7131 7.46935 -0.0 0.0 0.0 -0.0 0.0 0.0 -1.03961e-14 9.28523e-14 2.596e-14 48.1963 40.1043 -2.57837 -38.593 -45.1462 37.8715 -0.0172807 -7.9353 -1.11445 7.55469e-10 -2.66724e-09 -3.77764e-09 1.34678e-09 -4.61783e-09 -6.52584e-09 7.55474e-10 -2.66724e-09 -3.77764e-09 7.73091 5.47488 0.417314 7.55469e-10 -2.66724e-09 -3.77764e-09 2.90554 0.965183 0.102902 7.55474e-10 -2.66724e-09 -3.77764e-09 10.2786 0.731801 0.0259123 7.55464e-10 -2.66724e-09 -3.77763e-09 2.22167 -0.733487 -0.20892 -1.04521e-14 9.28521e-14 2.56091e-14 -45.3333 39.72 -2.87891 38.0055 -44.3952 -37.901 0.0807432 -16.8599 2.36307 1.32849e-09 -5.05528e-09 3.63583e-09 2.20682e-09 -8.74144e-09 6.31159e-09 1.32849e-09 -5.05528e-09 3.63583e-09 -7.73091 5.47488 -0.417314 1.32849e-09 -5.05528e-09 3.63583e-09 -2.90554 0.965183 -0.102902 1.32849e-09 -5.05528e-09 3.63583e-09 -10.2786 0.731801 -0.0259123 1.3285e-09 -5.05528e-09 3.63583e-09 -2.22167 -0.733487 0.20892 -2.03217e-16 0.0 -3.88251e-19 2.39537 -13.1866 2.29028 -0.00319837 9.16875 0.121073 -1.31126 -4.46745 -6.13938 2.03217e-16 0.0 3.88251e-19 2.78872 -8.97593 1.62601 -0.00499292 5.17947 -0.106728 1.49003 -7.80155 5.16024
-62.6064 84.1712 0.0780617 -48.603 84.3765 -36.7115 6.10119 -11.9488 1.17526 -1.99139 4.69544 0.276085 -5.07618 -1.53888 -5.70722 -150.053 24.141 11.3437 -0.0 0.0 0.0 -0.0 0.0 0.0 -1.8725e-14 1.76416e-13 2.87547e-14 72.5963 58.3656 -5.50644 -31.2563 -50.286 72.005 -0.130184 -11.5596 -1.64158 1.045e-09 -3.77536e-09 -5.3379e-09 1.86422e-09 -6.53631e-09 -9.22114e-09 1.04501e-09 -3.77535e-09 -5.3379e-09 7.73091 5.47488 0.417314 1.045e-09 -3.77536e-09 -5.3379e-09 2.90554 0.965183 0.102902 1.04501e-09 -3.77536e-09 -5.33789e-09 10.2786 0.731801 0.0259123 1.045e-09 -3.77536e-09 -5.33788e-09 2.22167 -0.733487 -0.20892 -1.87627e-14 1.76416e-13 2.84281e-14 -63.5992 57.8928 -6.09831 31.2571 -49.4648 -71.1824 0.630725 -24.64 3.63872 1.84491e-09 -7.12936e-09 5.13611e-09 3.06275e-09 -1.23276e-08 8.9156e-09 1.84491e-09 -7.12936e-09 5.1361e-09 -7.73091 5.47488 -0.417314 1.84491e-09 -7.12936e-09 5.13611e-09 -2.90554 0.965183 -0.102902 1.84491e-09 -7.12936e-09 5.13611e-09 -10.2786 0.731801 -0.0259123 1.84491e-09 -7.12936e-09 5.1361e-09 -2.22167 -0.733487 0.20892 -2.03217e-16 0.0 -3.88251e-19 3.34698 -17.1208 3.45431 -0.0139023 12.1674 0.182779 -2.14927 -7.33944 -9.05097 2.03217e-16 0.0 3.88251e-19 4.24785 -11.9829 2.38398 0.00240282 8.14925 -0.188827 2.67159 -12.9848 7.72195
-62.5105 84.1748 0.221292 -48.9364 84.2526 -37.0578 7.43916 -14.5262 1.57891 -2.49855 5.734 0.369822 -6.02042 -1.87537 -7.01498 175.699 29.1815 14.0474 -0.0 0.0 0.0 -0.0 0.0 0.0 -2.92093e-14 3.83782e-13 -2.23633e-15 93.2212 70.7965 -10.866 -26.8874 -44.3105 92.0635 -0.248289 -14.047 -2.01512 1.12111e-09 -4.1317e-09 -5.80484e-09 2.00097e-09 -7.15323e-09 -1.00276e-08 1.12111e-09 -4.13169e-09 -5.80485e-09 7.73091 5.47488 0.417314 1.12111e-09 -4.1317e-09 -5.80484e-09 2.90554 0.965183 0.102902 1.12111e-09 -4.1317e-09 -5.80484e-09 10.2786 0.731801 0.0259123 1.1211e-09 -4.1317e-09 -5.80482e-09 2.22167 -0.733487 -0.20892 -2.92354e-14 3.83781e-13 -2.5345e-15 -72.331 70.611 -12.066 27.1043 -43.7298 -90.9101 1.27823 -30.3219 4.71489 1.94911e-09 -7.69149e-09 5.57568e-09 3.23284e-09 -1.32985e-08 9.67709e-09 1.94912e-09 -7.69148e-09 5.57568e-09 -7.73091 5.47488 -0.417314 1.94912e-09 -7.69148e-09 5.57568e-09 -2.90554 0.965183 -0.102902 1.94912e-09 -7.69148e-09 5.57569e-09 -10.2786 0.731801 -0.0259123 1.94912e-09 -7.69148e-09 5.57568e-09 -2.22167 -0.733487 0.20892 -2.03217e-16 0.0 -3.88251e-19 4.20728 -19.7425 4.3549 -0.0251384 14.228 0.226686 -2.91949 -9.33577 -11.1387 2.03217e-16 0.0 3.88251e-19 5.39149 -13.9886 2.92497 0.0127063 10.2339 -0.247795 3.79805 -16.5704 9.63711
-62.3833 84.1837 0.377451 -48.9646 84.0703 -37.1835 8.07434 -15.4642 2.01765 -2.75917 6.16517 0.486479 -6.00517 -2.00925 -7.63649 162.286 31.1675 14.4483 -0.0 0.0 0.0 -0.0 0.0 0.0 -5.23533e-14 1.36012e-12 -1.01261e-13 104.007 75.2047 -15.3272 -26.9498 -40.5244 97.2948 -0.300646 -14.9475 -2.15347 8.0655e-10 -3.1769e-09 -4.32263e-09 1.44164e-09 -5.49993e-09 -7.46669e-09 8.06554e-10 -3.1769e-09 -4.32263e-09 7.73091 5.47488 0.417314 8.06549e-10 -3.1769e-09 -4.32263e-09 2.90554 0.965183 0.102902 8.06556e-10 -3.1769e-09 -4.32262e-09 10.2786 0.731801 0.0259123 8.06544e-10 -3.1769e-09 -4.32261e-09 2.22167 -0.733487 -0.20892 -5.23794e-14 1.36012e-12 -1.01521e-13 -71.7884 75.9255 -18.1011 27.1137 -40.1183 -96.3101 1.67223 -33.1765 5.31043 1.28427e-09 -5.50949e-09 4.12352e-09 2.12199e-09 -9.52236e-09 7.15149e-09 1.28427e-09 -5.50948e-09 4.12352e-09 -7.73091 5.47488 -0.417314 1.28427e-09 -5.50948e-09 4.12352e-09 -2.90554 0.965183 -0.102902 1.28427e-09 -5.50949e-09 4.12352e-09 -10.2786 0.731801 -0.0259123 1.28428e-09 -5.50948e-09 4.12352e-09 -2.22167 -0.733487 0.20892 -2.03217e-16 0.0 -3.88251e-19 4.77167 -20.5211 4.82978 -0.0298738 14.9626 0.243468 -3.2823 -10.1645 -12.0093 2.03217e-16 0.0 3.88251e-19 6.0158 -14.5754 3.14521 0.0179478 11.066 -0.272466 4.34153 -18.0009 10.4824
-62.2042 84.2008 0.539475 -49.1849 83.8685 -37.6279 8.1856 -15.2314 2.4727 -2.84172 6.16208 0.618743 -5.29761 -2.00002 -7.76702 164.032 31.029 13.0208 -0.0 0.0 0.0 -0.0 0.0 0.0 -8.40809e-14 2.85736e-12 -2.47894e-13 103.028 74.0796 -14.482 -26.9345 -40.879 96.5645 -0.28923 -14.7153 -2.11805 2.17323e-10 -1.2979e-09 -1.46809e-09 3.92875e-10 -2.24639e-09 -2.53485e-09 2.17327e-10 -1.2979e-09 -1.46809e-09 7.73091 5.47488 0.417314 2.17322e-10 -1.29791e-09 -1.46809e-09 2.90554 0.965183 0.102902 2.1733e-10 -1.2979e-09 -1.46808e-09 10.2786 0.731801 0.0259123 2.17319e-10 -1.2979e-09 -1.46808e-09 2.22167 -0.733487 -0.20892 -8.41151e-14 2.85736e-12 -2.48108e-13 -70.0846 76.1986 -18.8002 27.0461 -40.6008 -95.9062 1.75976 -34.0182 5.47962 7.92502e-11 -1.39727e-09 1.33949e-09 1.11452e-10 -2.4072e-09 2.31165e-09 7.92482e-11 -1.39727e-09 1.33949e-09 -7.73091 5.47488 -0.417314 7.92499e-11 -1.39727e-09 1.33949e-09 -2.90554 0.965183 -0.102902 7.92511e-11 -1.39728e-09 1.33949e-09 -10.2786 0.731801 -0.0259123 7.92538e-11 -1.39727e-09 1.33948e-09 -2.22167 -0.733487 0.20892 -2.03217e-16 0.0 -3.88251e-19 5.07702 -19.9891 4.98045 -0.0283356 14.7507 0.240355 -3.27867 -10.1791 -11.9926 2.03217e-16 0.0 3.88251e-19 6.249 -14.1514 3.12978 0.0173627 11.0041 -0.272115 4.33977 -17.919 10.51
